<?xml version="1.0" encoding="UTF-8"?>
<svg width="32px" height="32px" viewBox="0 0 32 32" version="1.1" xmlns="http://www.w3.org/2000/svg" xmlns:xlink="http://www.w3.org/1999/xlink">
    <!-- Generator: Sketch 52.5 (67469) - http://www.bohemiancoding.com/sketch -->
    <title>Service / Gibhub / White</title>
    <desc>Created with Sketch.</desc>
    <g id="Service-/-Gibhub-/-White" stroke="none" stroke-width="1" fill="none" fill-rule="evenodd">
        <path d="M15.9991406,2 C8.26863106,2 2,8.26863106 2,16.0008594 C2,22.185267 6.01092695,27.4329036 11.5748312,29.2841007 C12.2752609,29.4121547 12.5305095,28.9807244 12.5305095,28.6094537 C12.5305095,28.276857 12.5184776,27.3968079 12.5116022,26.2279926 C8.61755678,27.0745242 7.79594843,24.3518723 7.79594843,24.3518723 C7.15911602,22.7344383 6.2412523,22.3038674 6.2412523,22.3038674 C4.97016575,21.4349908 6.33750767,21.4530387 6.33750767,21.4530387 C7.74266421,21.5518723 8.48176796,22.8951504 8.48176796,22.8951504 C9.73050952,25.0351136 11.7578883,24.4171885 12.5562922,24.0588091 C12.6834868,23.1538367 13.0444444,22.536771 13.4449355,22.1869859 C10.3364027,21.833763 7.06801719,20.6331492 7.06801719,15.2677716 C7.06801719,13.7397176 7.61375077,12.4901166 8.50926949,11.5112339 C8.36488643,11.1571516 7.884469,9.73394721 8.64591774,7.80712093 C8.64591774,7.80712093 9.82160835,7.42983425 12.4961326,9.24149785 C13.612523,8.93124616 14.8105586,8.77569061 16.0008594,8.77053407 C17.1894414,8.77569061 18.387477,8.93124616 19.5055862,9.24149785 C22.1783917,7.42983425 23.351504,7.80712093 23.351504,7.80712093 C24.115531,9.73394721 23.6351136,11.1571516 23.4907305,11.5112339 C24.3879681,12.4901166 24.930264,13.7397176 24.930264,15.2677716 C24.930264,20.6460405 21.6567219,21.8294659 18.537876,22.1766728 C19.0406384,22.6081031 19.4883978,23.463229 19.4883978,24.7686924 C19.4883978,26.6405157 19.4712093,28.1505218 19.4712093,28.6094537 C19.4712093,28.9833026 19.7230203,29.4190301 20.433763,29.2823818 C25.9916513,27.4277471 30,22.1835482 30,16.0008594 C30,8.26863106 23.7313689,2 15.9991406,2" id="Gibhub-Logo" fill="#FFFFFF"></path>
    </g>
</svg>