<?xml version="1.0" encoding="UTF-8"?>
<svg width="32px" height="32px" viewBox="0 0 32 32" version="1.1" xmlns="http://www.w3.org/2000/svg" xmlns:xlink="http://www.w3.org/1999/xlink">
    <!-- Generator: Sketch 52.5 (67469) - http://www.bohemiancoding.com/sketch -->
    <title>Service / in / White</title>
    <desc>Created with Sketch.</desc>
    <g id="Service-/-in-/-White" stroke="none" stroke-width="1" fill="none" fill-rule="evenodd">
        <path d="M25.8593708,25.860108 L21.70879,25.860108 L21.70879,19.3616719 C21.70879,17.8112027 21.6805277,15.8180836 19.550902,15.8180836 C17.3902276,15.8180836 17.059041,17.5066818 17.059041,19.2498152 L17.059041,25.860108 L12.9088583,25.860108 L12.9088583,12.4974126 L16.8930496,12.4974126 L16.8930496,14.3233438 L16.947982,14.3233438 C17.5020827,13.2724481 18.8570819,12.165027 20.8772409,12.165027 C25.082754,12.165027 25.8593708,14.9323856 25.8593708,18.5301109 L25.8593708,25.860108 Z M8.22845851,10.6706852 C6.89734294,10.6706852 5.82019022,9.59152687 5.82019022,8.26198465 C5.82019022,6.93403469 6.89734294,5.85487632 8.22845851,5.85487632 C9.55638959,5.85487632 10.6351346,6.93403469 10.6351346,8.26198465 C10.6351346,9.59152687 9.55638959,10.6706852 8.22845851,10.6706852 Z M6.1509788,25.860108 L10.304346,25.860108 L10.304346,12.4974126 L6.1509788,12.4974126 L6.1509788,25.860108 Z M27.927297,2 L4.06673206,2 C2.92628766,2 2,2.90361103 2,4.01819733 L2,27.9798123 C2,29.0951948 2.92628766,30 4.06673206,30 L27.927297,30 C29.0693337,30 30,29.0951948 30,27.9798123 L30,4.01819733 C30,2.90361103 29.0693337,2 27.927297,2 Z" id="in" fill="#FFFFFF"></path>
    </g>
</svg>