<?xml version="1.0" encoding="UTF-8"?>
<svg width="32px" height="32px" viewBox="0 0 32 32" version="1.1" xmlns="http://www.w3.org/2000/svg" xmlns:xlink="http://www.w3.org/1999/xlink">
    <!-- Generator: Sketch 52.5 (67469) - http://www.bohemiancoding.com/sketch -->
    <title>Service / telegram / White</title>
    <desc>Created with Sketch.</desc>
    <g id="Service-/-telegram-/-White" stroke="none" stroke-width="1" fill="none" fill-rule="evenodd">
        <path d="M29.9446636,4.50814202 C29.8440911,4.20860835 29.7250226,4.12663072 29.5373645,4.05450617 C29.1285241,3.8956745 28.4356918,4.13451318 28.4356918,4.13451318 C28.4356918,4.13451318 3.90218553,13.1536294 2.50072228,14.1523377 C2.199005,14.367529 2.09804724,14.4920719 2.0479537,14.6390799 C1.80557801,15.3504723 2.56083453,15.6638003 2.56083453,15.6638003 L8.88379591,17.7707832 C8.88379591,17.7707832 9.11923557,17.8058601 9.20362393,17.7518653 C10.6420793,16.8221285 23.6760344,8.40365612 24.4282082,8.12106976 C24.5468914,8.08481042 24.6343624,8.12619336 24.610857,8.20974749 C24.3099104,9.29003929 12.9895399,19.5821736 12.9895399,19.5821736 C12.9895399,19.5821736 12.8793341,19.7102636 12.8997569,19.813918 L12.3136624,26.1076721 C12.3136624,26.1076721 12.0666627,28.0727705 13.9883281,26.1076721 C15.3616619,24.7030168 16.6648648,23.5537535 17.3126129,22.9976456 C19.4885994,24.5347262 21.8256559,26.229062 22.8360042,27.118204 C23.343105,27.5647457 23.7677441,27.6372644 24.1168576,27.62347 C25.075571,27.5868166 25.3429934,26.5100719 25.3429934,26.5100719 C25.3429934,26.5100719 29.8136497,8.1064872 29.9631596,5.64085221 C29.9778024,5.39925466 29.9978398,5.24515248 29.9997664,5.07922659 C30.0024638,4.8486645 29.9816557,4.61692003 29.9446636,4.50814202" id="telegram" fill="#FFFFFF"></path>
    </g>
</svg>