<?xml version="1.0" encoding="UTF-8"?>
<svg width="32px" height="32px" viewBox="0 0 32 32" version="1.1" xmlns="http://www.w3.org/2000/svg" xmlns:xlink="http://www.w3.org/1999/xlink">
    <!-- Generator: Sketch 52.5 (67469) - http://www.bohemiancoding.com/sketch -->
    <title>Service / Twitter / White</title>
    <desc>Created with Sketch.</desc>
    <g id="Service-/-Twitter-/-White" stroke="none" stroke-width="1" fill="none" fill-rule="evenodd">
        <path d="M11.1768032,26.8 C20.988424,26.8 26.3544268,18.7984141 26.3544268,11.8597357 C26.3544268,11.632188 26.3493846,11.4061674 26.3389125,11.1809104 C27.3803088,10.4398532 28.2855672,9.51515419 29,8.46217327 C28.0443201,8.87985316 27.0157231,9.16199706 25.9367047,9.28875184 C27.0382188,8.63894273 27.8833594,7.61001468 28.2824644,6.38408223 C27.2511524,6.98578561 26.1104647,7.42331865 24.8953084,7.6585022 C23.9217871,6.63797357 22.5355859,6 21.0016111,6 C18.0550608,6 15.666249,8.35145374 15.666249,11.2500147 C15.666249,11.6627313 15.7131797,12.0628488 15.804714,12.4473128 C11.3715074,12.2281645 7.44018796,10.1386197 4.80935332,6.96135095 C4.35090624,7.73715125 4.08716342,8.63894273 4.08716342,9.60067548 C4.08716342,11.4225844 5.02849258,13.0306902 6.46084881,13.9710426 C5.58584322,13.944699 4.76397404,13.70837 4.044887,13.314743 C4.04333557,13.3361233 4.04333557,13.3582673 4.04333557,13.3815565 C4.04333557,15.9250514 5.88294175,18.047812 8.32333855,18.5292511 C7.87497576,18.6491336 7.4037294,18.7140382 6.9173566,18.7140382 C6.57332737,18.7140382 6.23938241,18.6804405 5.91435817,18.6193539 C6.59349593,20.7054626 8.56264638,22.2238473 10.8975461,22.2662261 C9.07151488,23.6746549 6.7719102,24.5142144 4.27217125,24.5142144 C3.84203774,24.5142144 3.41733423,24.4897797 3,24.4412922 C5.3608861,25.9306608 8.16354143,26.8 11.1768032,26.8" id="Twitter" fill="#FFFFFF"></path>
    </g>
</svg>